<?xml version="1.0" encoding="UTF-8"?>
<svg id="Layer_1" xmlns="http://www.w3.org/2000/svg" version="1.1" viewBox="0 0 300 107.9">
  <!-- Generator: Adobe Illustrator 29.0.0, SVG Export Plug-In . SVG Version: 2.1.0 Build 186)  -->
  <defs>
    <style>
      .st0 {
        fill: #fff;
      }

      .st1 {
        fill: #f18a00;
      }

      .st2 {
        fill: #bc955c;
      }
    </style>
  </defs>
  <g>
    <path class="st2" d="M211.5,93.9h1.2v7.5c0,1.5-.4,2.6-1.1,3.2-.7.7-1.7,1-2.9,1s-2.3-.3-3-1c-.6-.7-1-1.7-1-3.2v-7.5h1.4v7.5c0,.9.1,1.5.3,1.9s.5.6.9.8c.4.2.9.3,1.3.3.9,0,1.6-.2,2-.7.5-.5.7-1.2.7-2.3v-7.5Z"/>
    <path class="st2" d="M222.8,105.4h-1.5l-1.2-3.4h-4.3l-1,3.4h-1.2l3.7-11.5h1.6l3.8,11.5ZM219.9,101l-1.8-5.5-1.8,5.5h3.6Z"/>
    <path class="st2" d="M231.8,104.2v1.3h-7.4v-11.5h7.3v1.3h-5.8v3.7h4.6v1.2h-4.6v4.1h6Z"/>
  </g>
  <g>
    <path class="st2" d="M217.9,75.9c23,0,49.4,5.7,52.3,5.7h29V1.3h-162.6v80.3h29c2.9,0,29.3-5.7,52.3-5.7"/>
    <path class="st2" d="M45,1.3C14,1.3,1.1,2.7,1.1,18.2s13.2,14.8,13.2,14.8c1.7,0,3.5-.4,5.4-1.3,10.2-5,19.2-2.9,19.2-2.9,0,0,22.3,7.8,36,2.4,13.7-5.5,32.5-6.7,32.5-6.7V1.3h-62.4Z"/>
    <path class="st0" d="M17.1,20.6c-2,0-3.6-1.6-3.6-3.6s1.6-3.6,3.6-3.6,3.6,1.6,3.6,3.6-1.6,3.6-3.6,3.6M87.9,17c-2,0-3.6-1.6-3.6-3.6s1.6-3.6,3.6-3.6,3.6,1.6,3.6,3.6-1.6,3.6-3.6,3.6"/>
    <path class="st2" d="M111.8,24.4s7,.8,7.4,4.6c.4,3.7,1,5.5,2.2,7.7,1.2,2.2,3.2,4,4.6,4.7h6.1V1.3h-20.3v23.1Z"/>
    <path class="st0" d="M234.1,8c-3.8.1-7.6.2-11.4.3-3.8,0-7.6.2-11.4.2l-22.7.3h-22.7c0,.1-11.4.1-11.4.1h-11.4s.9-1,.9-1v16.8c-.1,5.6-.2,11.2-.3,16.8,0,5.6-.1,11.2-.3,16.8-.1,5.6-.2,11.2-.4,16.8-.2-5.6-.3-11.2-.4-16.8-.1-5.6-.2-11.2-.3-16.8,0-5.6-.2-11.2-.2-16.8V8c0,0,0-.9,0-.9h1s11.4,0,11.4,0h11.4s22.7.1,22.7.1l22.7.3c3.8,0,7.6.2,11.4.2,3.8,0,7.6.2,11.4.3"/>
    <path class="st0" d="M266.5,8c4.3-.1,8.7-.2,13-.3l13-.2h.5s0,.5,0,.5l.2,16.8c0,5.6.1,11.2.2,16.8,0,11.2.1,22.3.1,33.5v1s-1,0-1,0h-12.6s-6.3,0-6.3,0h-3.1c-.5,0-1.2,0-1.7-.1-.5,0-1.1-.1-1.6-.2l-12.4-2.1c-4.1-.7-8.3-1.2-12.4-1.8-8.3-1.1-16.6-1.8-25-1.9-8.4-.1-16.7.5-25.1,1.3,4.2-.6,8.3-1.1,12.5-1.5,4.2-.4,8.4-.7,12.6-.7,8.4,0,16.8.5,25.2,1.4,8.4.9,16.7,2.2,24.9,3.5.5,0,1,.2,1.5.2.3,0,.5,0,.7,0h.3s.4,0,.4,0h3.1s6.3,0,6.3,0h12.6s-1,1-1,1c0-11.2,0-22.3.1-33.5,0-5.6.1-11.2.2-16.8l.2-16.8.5.5-13-.2c-4.3,0-8.7-.2-13-.3"/>
    <polygon class="st1" points="13.5 41.3 23 69 23.1 69 32 41.3 44.5 41.3 44.5 81.6 36.2 81.6 36.2 53.1 36 53.1 26.2 81.6 19.4 81.6 9.5 53.3 9.4 53.3 9.4 81.6 1.1 81.6 1.1 41.3 13.5 41.3"/>
    <path class="st1" d="M60,73.9c1.2,1.2,2.9,1.7,5.2,1.7s3-.4,4.2-1.2c1.2-.8,1.9-1.7,2.1-2.6h7.1c-1.1,3.5-2.9,6-5.2,7.5-2.3,1.5-5.2,2.3-8.5,2.3s-4.4-.4-6.2-1.1c-1.8-.7-3.4-1.8-4.7-3.1-1.3-1.4-2.3-3-3-4.9-.7-1.9-1-3.9-1-6.2s.4-4.2,1.1-6.1c.7-1.9,1.7-3.5,3-4.9,1.3-1.4,2.9-2.5,4.7-3.2,1.8-.8,3.8-1.2,6.1-1.2s4.6.5,6.5,1.4c1.8,1,3.4,2.2,4.5,3.9,1.2,1.6,2,3.5,2.6,5.5.5,2.1.7,4.2.6,6.5h-21c.1,2.6.8,4.5,2,5.6M69,58.5c-1-1.1-2.4-1.6-4.4-1.6s-2.3.2-3.2.6c-.8.4-1.5,1-2,1.6-.5.6-.9,1.3-1.1,2-.2.7-.3,1.4-.4,1.9h13c-.4-2-1-3.6-2-4.6"/>
    <path class="st1" d="M132.2,52.2v5.4h-5.9v14.4c0,1.4.2,2.3.7,2.7.5.5,1.4.7,2.7.7s.9,0,1.3,0c.4,0,.8,0,1.2-.2v6.2c-.7.1-1.4.2-2.3.2-.8,0-1.6,0-2.4,0-1.2,0-2.4,0-3.5-.3-1.1-.2-2.1-.5-2.9-1-.8-.5-1.5-1.2-2-2.1-.5-.9-.7-2.1-.7-3.6v-17.2h-4.9v-5.4h4.9v-8.7h8v8.7h5.9Z"/>
    <path class="st1" d="M110.9,80.9c0-.1-.2-.3-.3-.5t0,0c-.2-.6-.4-1.3-.5-2.2-.2-1.2-.2-2.5-.2-3.8v-15.2c0-1.8-.4-3.2-1.2-4.3-.8-1.1-1.8-1.9-3-2.5-1.2-.6-2.6-1-4.1-1.2-1.5-.2-3-.3-4.5-.3s-3.2.2-4.8.5c-1.6.3-3,.9-4.3,1.6-1.3.8-2.3,1.7-3.2,3-.8,1.2-1.3,2.8-1.4,4.7h8c.1-1.6.7-2.7,1.6-3.4.9-.7,2.1-1,3.7-1s1.4,0,2,.1c.6,0,1.2.3,1.6.6.5.3.8.7,1.1,1.2.3.5.4,1.2.4,2.1,0,.8-.2,1.5-.7,1.9-.5.4-1.2.8-2.1,1-.9.2-1.9.4-3.1.5-1.2.1-2.4.3-3.6.5-1.2.2-2.4.4-3.6.8-1.2.3-2.2.8-3.2,1.4-.9.6-1.7,1.5-2.3,2.6-.6,1.1-.9,2.4-.9,4.1s.3,2.8.8,3.9c.5,1.1,1.2,2,2.1,2.7.9.7,2,1.2,3.2,1.6,1.2.3,2.5.5,3.9.5s3.6-.3,5.3-.8c1.7-.5,3.2-1.4,4.5-2.8,0,.5.1,1,.2,1.4,0,.5.2.9.4,1.4.1.4.4.7.4.7h8.6c-.3,0-.6-.4-.8-.7M101.9,69.6c0,.5,0,1.1-.1,1.8,0,.8-.3,1.5-.8,2.2-.4.7-1.1,1.4-1.9,1.9-.9.5-2.1.8-3.7.8s-1.3,0-1.9-.2c-.6-.1-1.1-.3-1.6-.6-.5-.3-.8-.7-1.1-1.2-.3-.5-.4-1.1-.4-1.8s.1-1.4.4-1.9c.3-.5.6-.9,1-1.2.4-.3.9-.6,1.5-.8.6-.2,1.2-.3,1.8-.5.6-.1,1.3-.2,1.9-.3.6,0,1.2-.2,1.8-.3.6-.1,1.1-.3,1.6-.4.5-.2.9-.4,1.3-.7v3Z"/>
    <path class="st0" d="M218.4,23.3c-8.8,0-15.7,8.8-16,19.7-4,6.7-9.6,13.2-12.2,13.2-4.5,0,12.1-32.9,12.1-37.3s-2.3-5.5-5-5.5c-4.1,0-8.9,6.2-12.9,12.9,2.6-7,3.4-13.7-3.1-13.7s-8.2,5.1-12.4,11.9c.4-1.6.6-2.9.7-4.1.3-4.5-1-7.1-3.8-7.4h-7.7c-1.7,0-4.1,5-1.9,5l8.2-2.4c.6,0,1,.7.9,1.3-.5,6.1-15,34.3-15,44.3s1.7,9.3,3.6,9.3c0-6.5,2.9-16,6.8-25.4,1.3-2.6,2.6-5.5,3.9-8.4,6.1-12.5,13.2-22.8,16.8-22.8s-11.7,28.8-11.7,36.4,1.5,6.9,2.8,6.9c0-6.1,18-42.6,24.9-42.6s-12.1,28.4-12.1,35.7,2.3,6.9,5,6.9,8.3-5.2,12.3-11.3c.6,6.2,4,11.9,8.3,11.9,10,0,18.5-13.7,18.5-23.6s-3.7-11.1-10.9-11.1M209.9,56c-2,0-2.9-1.6-2.9-4.7,0-12.4,8.9-26.7,13.7-26.7s3.9,3,3.9,7.5h0c-.6,10.3-8.7,23.9-14.7,23.9"/>
    <path class="st0" d="M248.9,23.3c-9.1,0-16.1,9.4-16,20.7,0,6.9,3.7,13.9,8.4,13.9,10,0,18.5-13.7,18.5-23.6s-3.7-11.1-10.9-11.1M240.4,56c-2,0-2.9-1.6-2.9-4.7,0-12.4,8.9-26.7,13.7-26.7s3.9,3,3.9,7.5h0c-.6,10.3-8.7,23.9-14.7,23.9"/>
    <path class="st0" d="M282.3,35.2c0,10.3-16.5,26.7-16.7,20.1-.1-6,5.5-19.2,9.7-28.9,2.8-.2,5.2-.3,5.9-.2v-2.4c-1.5,0-3.1,0-4.7.1,2.2-4.9,3.9-8.6,3.9-9.2,0-.9-6.5-3.7-6.5-2.1s-1.8,5.8-4,11.7c-1.1,0-2.1,0-2.8,0v2.4c.5,0,1.1,0,1.9,0-3.7,9.7-8.1,21.2-8.1,24.9s3.3,6.3,5.3,6.3c8.3,0,19.6-17.7,19.6-25.5s-3.3,1.1-3.3,2.7"/>
    <rect class="st1" x="1.1" y="96.3" width="43.4" height="1.9"/>
    <path class="st2" d="M52.5,98.7c0,.5,0,.8.2,1.2.2.3.4.6.7.8.3.2.6.3.9.4.4,0,.7.1,1.1.1s.6,0,.9,0c.3,0,.6-.1.9-.3.3-.1.5-.3.7-.5.2-.2.3-.5.3-.8s-.1-.7-.4-.9c-.2-.2-.5-.4-.9-.6-.4-.2-.8-.3-1.3-.4-.5-.1-1-.2-1.5-.4-.5-.1-1-.3-1.5-.5-.5-.2-.9-.4-1.3-.7-.4-.3-.7-.7-.9-1.1-.2-.4-.4-1-.4-1.6s.1-1.3.4-1.8c.3-.5.7-.9,1.2-1.3.5-.3,1-.6,1.6-.8.6-.2,1.2-.2,1.8-.2s1.4,0,2,.2c.7.2,1.2.4,1.7.8.5.4.9.8,1.2,1.4.3.6.4,1.2.4,2h-2.9c0-.4-.1-.7-.3-1-.1-.3-.3-.5-.6-.6-.2-.2-.5-.3-.8-.3-.3,0-.7,0-1,0s-.5,0-.7,0c-.2,0-.5.1-.7.3-.2.1-.4.3-.5.5-.1.2-.2.4-.2.7s0,.5.2.6c.1.2.3.3.6.4.3.1.7.3,1.2.4.5.1,1.2.3,2.1.5.2,0,.4,0,.6.2.3,0,.5.2.8.3.3.1.6.3.9.5.3.2.6.4.8.7.2.3.4.6.6,1,.2.4.2.8.2,1.3s-.1,1.2-.4,1.7c-.2.5-.6,1-1.1,1.4-.5.4-1.1.7-1.8.9-.7.2-1.5.3-2.4.3s-1.5,0-2.2-.3c-.7-.2-1.3-.5-1.8-.9-.5-.4-1-.9-1.3-1.5-.3-.6-.5-1.3-.5-2.2h2.9Z"/>
    <path class="st2" d="M63.3,93.4h2.5v1.3h0c.4-.5.8-.9,1.3-1.2.5-.3,1.1-.4,1.7-.4s1.2.1,1.7.4c.5.2.9.7,1.2,1.3.3-.4.7-.8,1.2-1.1.5-.3,1.1-.5,1.8-.5s1,0,1.4.2c.4.1.8.3,1.1.6.3.3.6.6.7,1.1.2.4.3,1,.3,1.6v6.6h-2.7v-5.6c0-.3,0-.6,0-.9,0-.3,0-.5-.2-.8-.1-.2-.3-.4-.5-.5-.2-.1-.5-.2-.9-.2s-.7,0-.9.2c-.2.1-.4.3-.6.6-.1.2-.2.5-.3.8,0,.3,0,.6,0,.9v5.5h-2.7v-5.5c0-.3,0-.6,0-.9,0-.3,0-.6-.2-.8,0-.2-.3-.4-.5-.6-.2-.1-.5-.2-1-.2s-.3,0-.5,0c-.2,0-.4.2-.6.3-.2.2-.4.4-.5.7-.1.3-.2.7-.2,1.2v5.7h-2.7v-9.8Z"/>
    <path class="st2" d="M80.9,98.3c0-.8.1-1.5.4-2.1.2-.6.6-1.2,1-1.6.4-.4,1-.8,1.6-1,.6-.2,1.3-.4,2.1-.4s1.5.1,2.1.4c.6.2,1.2.6,1.6,1,.4.4.8,1,1,1.6.2.6.4,1.4.4,2.1s-.1,1.5-.4,2.1c-.2.6-.6,1.2-1,1.6-.4.4-1,.8-1.6,1-.6.2-1.3.4-2.1.4s-1.5-.1-2.1-.4c-.6-.2-1.2-.6-1.6-1-.4-.4-.8-1-1-1.6-.2-.6-.4-1.3-.4-2.1M83.6,98.3c0,.4,0,.8.1,1.1,0,.4.2.7.4,1,.2.3.4.5.7.7.3.2.7.3,1.1.3s.8,0,1.1-.3c.3-.2.6-.4.7-.7.2-.3.3-.6.4-1,0-.4.1-.8.1-1.1s0-.8-.1-1.2c0-.4-.2-.7-.4-1-.2-.3-.4-.5-.7-.7-.3-.2-.7-.3-1.1-.3s-.8,0-1.1.3c-.3.2-.5.4-.7.7-.2.3-.3.6-.4,1,0,.4-.1.8-.1,1.2"/>
    <polygon class="st2" points="93.7 89.6 96.4 89.6 96.4 96.9 99.8 93.4 103 93.4 99.3 97 103.4 103.2 100.2 103.2 97.5 98.8 96.4 99.8 96.4 103.2 93.7 103.2 93.7 89.6"/>
    <path class="st2" d="M107.9,91.9h-2.7v-2.2h2.7v2.2ZM105.2,93.4h2.7v9.8h-2.7v-9.8Z"/>
    <path class="st2" d="M110.7,93.4h2.6v1.4h0c.3-.6.8-1,1.3-1.2.5-.3,1.1-.4,1.7-.4s1.3,0,1.8.3c.5.2.8.5,1.1.8.3.3.5.8.6,1.3.1.5.2,1.1.2,1.7v6h-2.7v-5.5c0-.8-.1-1.4-.4-1.8-.3-.4-.7-.6-1.3-.6s-1.3.2-1.6.7c-.3.4-.5,1.2-.5,2.2v5.1h-2.7v-9.8Z"/>
    <path class="st2" d="M132.2,102.6c0,.3,0,.6,0,.9,0,.3-.1.6-.3,1-.1.3-.3.6-.5.9-.2.3-.5.6-.9.8-.4.2-.8.4-1.4.6-.5.1-1.2.2-1.9.2s-1,0-1.5-.2c-.5-.1-1-.3-1.4-.6-.4-.3-.8-.6-1-1-.3-.4-.4-.9-.5-1.4h2.7c.1.5.4.9.7,1.1.4.2.8.3,1.3.3.7,0,1.3-.2,1.7-.7.4-.5.5-1,.5-1.7v-1.3h0c-.3.5-.7.9-1.2,1.1-.5.2-1.1.4-1.7.4s-1.4-.1-1.9-.4c-.5-.3-1-.6-1.3-1.1-.3-.4-.6-1-.7-1.6-.2-.6-.2-1.2-.2-1.9s0-1.2.3-1.8c.2-.6.5-1.1.8-1.6.4-.4.8-.8,1.3-1.1.5-.3,1.1-.4,1.8-.4s1.2.1,1.7.4c.5.2.9.6,1.2,1.2h0v-1.3h2.6v9.2ZM127.3,100.9c.4,0,.7,0,1-.2.3-.2.5-.4.7-.6.2-.3.3-.5.4-.9,0-.3.1-.7.1-1s0-.8-.1-1.1c0-.4-.2-.7-.4-1-.2-.3-.4-.5-.7-.7-.3-.2-.7-.2-1.1-.2s-.7,0-1,.2c-.3.2-.5.4-.7.6-.2.3-.3.6-.4.9,0,.3-.1.7-.1,1.1s0,.7.1,1.1c0,.3.2.7.4.9.2.3.4.5.7.7.3.2.6.3,1,.3"/>
  </g>
</svg>